<svg xmlns="http://www.w3.org/2000/svg" viewBox="0 0 253.19 323.23"><defs><style>.cls-1{isolation:isolate;}.cls-2{fill:#41a292;}.cls-3,.cls-5,.cls-7{fill:none;stroke:#41a292;stroke-miterlimit:10;}.cls-3{stroke-width:0.55px;}.cls-4{fill:#fff;}.cls-5{stroke-width:0.63px;}.cls-6{mix-blend-mode:multiply;}.cls-7{stroke-width:4.91px;}</style></defs><g class="cls-1"><g id="レイヤー_2" data-name="レイヤー 2"><g id="レイヤー_1-2" data-name="レイヤー 1"><path class="cls-2" d="M55.66,319.83a15.48,15.48,0,0,0,.09,2h-.81a17.39,17.39,0,0,0,.08-2v-8.25H40.72v8.25a15.48,15.48,0,0,0,.09,2H40a17.39,17.39,0,0,0,.08-2V303.69a17.39,17.39,0,0,0-.08-2h.81a15.48,15.48,0,0,0-.09,2V311H55v-7.32a17.39,17.39,0,0,0-.08-2h.81a15.48,15.48,0,0,0-.09,2Z"/><path class="cls-2" d="M75.89,319.74a16.75,16.75,0,0,0,1.64,1.38l-.57.36a21.57,21.57,0,0,0-1.62-1.54l-1.81-1.64a6.87,6.87,0,0,1-5.94,3.27c-3.27,0-5.47-1.78-5.47-4.45,0-2.21,1.11-3.63,4.4-5.67-1.67-1.67-2.27-2.71-2.27-3.86,0-1.9,1.18-3,3.2-3a3,3,0,0,1,3.11,2.93c0,1.63-.72,2.53-3.22,4,2.32,2.37,4.24,4.27,6.07,6a11,11,0,0,0,1.16-2.91,14.5,14.5,0,0,0,.42-2.19h.63c-.12.7-.28,1.42-.49,2.28a13.63,13.63,0,0,1-1.32,3.21Zm-2.76-1.81c-1.73-1.64-3.54-3.43-6.26-6.14-3,1.74-4.2,3.25-4.2,5.33,0,2.37,2,4,4.92,4A6.44,6.44,0,0,0,73.13,317.93Zm-8.32-10.34c0,1,.53,1.92,2.2,3.61,2.32-1.4,3-2.23,3-3.63a2.46,2.46,0,0,0-2.55-2.51A2.32,2.32,0,0,0,64.81,307.59Z"/><path class="cls-2" d="M99.75,319.83a17.39,17.39,0,0,0,.08,2H99a15.48,15.48,0,0,0,.09-2v-8.25H84.81v8.25a17.39,17.39,0,0,0,.08,2h-.81a15.48,15.48,0,0,0,.09-2V303.69a15.48,15.48,0,0,0-.09-2h.81a17.39,17.39,0,0,0-.08,2V311h14.3v-7.32a15.48,15.48,0,0,0-.09-2h.81a17.39,17.39,0,0,0-.08,2Z"/><path class="cls-2" d="M128.76,317.31a13.06,13.06,0,0,1-1.34,1.87,8.25,8.25,0,0,1-6.66,3c-5.91,0-9.51-4-9.51-10.5,0-6.14,3.63-10.26,9-10.26a8.64,8.64,0,0,1,6.33,2.2,10.59,10.59,0,0,1,2,2.6l-.72.41a7.87,7.87,0,0,0-1.73-2.63,8,8,0,0,0-5.85-2c-5.05,0-8.37,3.77-8.37,9.69,0,6.24,3.32,9.93,8.87,9.93a7.73,7.73,0,0,0,6.19-2.71,14.37,14.37,0,0,0,1.28-1.9Z"/><path class="cls-2" d="M171.87,319.83a17.39,17.39,0,0,0,.08,2h-.89a13.34,13.34,0,0,0-1.28-2L158,303.69c-.39-.52-.75-1-1.17-1.55v17.69a15.48,15.48,0,0,0,.09,2h-.81a17.39,17.39,0,0,0,.08-2V303.69a17.39,17.39,0,0,0-.08-2h1.22c.42.68.9,1.36,1.4,2l12.46,17.12V303.69a15.48,15.48,0,0,0-.09-2H172a17.39,17.39,0,0,0-.08,2Z"/><path class="cls-2" d="M194.08,319.83a17.39,17.39,0,0,0,.08,2h-.89a13.34,13.34,0,0,0-1.28-2l-11.74-16.14c-.39-.52-.75-1-1.17-1.55v17.69a15.48,15.48,0,0,0,.09,2h-.81a17.39,17.39,0,0,0,.08-2V303.69a17.39,17.39,0,0,0-.08-2h1.22c.42.68.9,1.36,1.4,2l12.46,17.12V303.69a15.48,15.48,0,0,0-.09-2h.81a17.39,17.39,0,0,0-.08,2Z"/><path class="cls-2" d="M210.63,321.3a18.26,18.26,0,0,0,2.09-.08V322a18.26,18.26,0,0,0-2.09-.08h-7.92a19.23,19.23,0,0,0-2.14.08,17.39,17.39,0,0,0,.08-2V303.63a17.91,17.91,0,0,0-.08-2.06,19.23,19.23,0,0,0,2.14.08h7.5a18.17,18.17,0,0,0,2.09-.08v.73a18.17,18.17,0,0,0-2.09-.08h-8.92v9.25h8a18.34,18.34,0,0,0,2.09-.08v.74a16.32,16.32,0,0,0-2.09-.09h-8v9.26Z"/><path class="cls-2" d="M234,317.31a13.89,13.89,0,0,1-1.34,1.87,8.25,8.25,0,0,1-6.66,3c-5.91,0-9.51-4-9.51-10.5,0-6.14,3.62-10.26,9-10.26a8.64,8.64,0,0,1,6.33,2.2,10.85,10.85,0,0,1,1.95,2.6l-.72.41a7.87,7.87,0,0,0-1.73-2.63,8,8,0,0,0-5.86-2c-5,0-8.36,3.77-8.36,9.69,0,6.24,3.32,9.93,8.87,9.93a7.71,7.71,0,0,0,6.18-2.71,13.41,13.41,0,0,0,1.29-1.9Z"/><path class="cls-2" d="M250.31,301.65a18.17,18.17,0,0,0,2.09-.08v.73a18.17,18.17,0,0,0-2.09-.08h-5.68v17.61a17.39,17.39,0,0,0,.08,2h-.81a15.48,15.48,0,0,0,.09-2V302.22H238.3a18.26,18.26,0,0,0-2.09.08v-.73a18.26,18.26,0,0,0,2.09.08Z"/><ellipse class="cls-3" cx="75.43" cy="311.58" rx="0.95" ry="0.93"/><ellipse class="cls-3" cx="77.76" cy="322.02" rx="0.95" ry="0.93"/><path class="cls-4" d="M152.65,314.23a3.42,3.42,0,0,0-3.2-3.41v0a2.13,2.13,0,0,0-2.09-2.11,6,6,0,0,0-12,1c0,.21,0,.43,0,.64a3.67,3.67,0,0,0,.28,7.33h13.75v0A3.41,3.41,0,0,0,152.65,314.23Z"/><path class="cls-5" d="M152.65,314.23a3.42,3.42,0,0,0-3.2-3.41v0a2.13,2.13,0,0,0-2.09-2.11,6,6,0,0,0-12,1c0,.21,0,.43,0,.64a3.67,3.67,0,0,0,.28,7.33h13.75v0A3.41,3.41,0,0,0,152.65,314.23Z"/><path class="cls-2" d="M48.27,0h0a98.45,98.45,0,0,1,98.45,98.45V207.3a0,0,0,0,1,0,0H48.27a0,0,0,0,1,0,0V0A0,0,0,0,1,48.27,0Z"/><path class="cls-2" d="M154.74,75.64h0a98.45,98.45,0,0,1,98.45,98.45V282.93a0,0,0,0,1,0,0H154.74a0,0,0,0,1,0,0V75.64A0,0,0,0,1,154.74,75.64Z"/><g class="cls-6"><path class="cls-7" d="M103.89,37.35H208.4s39.8-2.5,39.8,33.8c0,30.13-35,29.7-35,29.7H46.75s-44.29,0-44.29,37.62c0,44.78,50.05,42.5,50.05,42.5H154.68"/><ellipse class="cls-7" cx="98.11" cy="37.35" rx="5.77" ry="4.9"/></g></g></g></g></svg>